<svg xmlns="http://www.w3.org/2000/svg" width="280" height="132" viewBox="0 0 280 132" fill="none">
<path d="M358.503 21.7053C358.412 34.0111 351.209 45.3913 339.961 51.3611L265.319 91.9678C265.201 92.0769 264.968 92.0754 264.734 92.1837L196.432 127.558C185.067 133.637 171.063 133.435 159.789 127.208L124.221 107.528C124.221 107.528 110.622 99.967 105.74 97.2981C105.391 97.076 104.81 96.8525 104.113 96.4084C98.8812 93.6273 93.6506 90.7363 89.938 87.7453L17.9853 48.4882C6.82726 42.2621 -0.0898282 30.6798 0.000881366 18.374L1.03941 -75.0155C1.04022 -75.1254 1.04103 -75.2352 1.04265 -75.455C0.932425 -76.3347 0.939715 -77.3236 0.946194 -78.2026L1.62181 -138.192C1.71252 -150.497 8.91558 -161.878 20.281 -167.956L75.8181 -197.48C79.4505 -199.434 88.1116 -202.784 88.815 -203.219L163.681 -242.506C169.422 -245.545 175.852 -247.041 182.271 -246.999C188.572 -246.848 194.746 -245.269 200.325 -242.266L342.011 -163.437C353.286 -157.21 360.203 -145.628 359.995 -133.323L359.019 -48.3935C359.019 -48.2836 359.018 -48.2836 359.018 -48.1738L358.503 21.7053ZM348.466 21.6397L349.04 -40.3277L283.797 -8.2301C275.83 -4.1068 268.714 -4.48293 266.382 -4.82779C258.211 -4.55154 248.913 -9.77657 247.866 -10.3328L207.769 -32.9C207.536 -33.0114 207.42 -33.1221 207.187 -33.2335C207.187 -33.2335 207.072 -33.3441 206.955 -33.3448C201.484 -35.2485 196.115 -35.1737 193.191 -34.4237C186.878 -32.9266 183.928 -28.5508 183.751 -20.421C183.751 -20.3111 183.75 -20.2012 183.749 -20.0914L183.715 -15.4767C183.714 -15.3668 183.713 -15.1471 183.712 -15.0372L182.863 20.9972C182.862 21.1071 182.862 21.1071 182.861 21.217C182.856 21.8762 182.036 38.1328 195.873 45.1455C195.989 45.1463 195.988 45.2562 196.105 45.2569L244.226 71.8322L244.342 71.9428C244.458 72.0535 256.31 79.1631 262.586 82.7202L262.703 82.6111L334.651 43.4152C343.204 38.8562 348.401 30.5394 348.466 21.6397ZM179.985 -63.6277C177.729 -58.3682 174.194 -53.7764 169.615 -50.0705C172.524 -48.9527 174.965 -47.6183 176.59 -46.2891C179.027 -44.5151 180.643 -41.9774 181.673 -39.2237C184.49 -41.5127 187.769 -42.9197 190.808 -43.5591C191.86 -43.772 194.431 -44.3046 197.816 -44.2825C196.785 -46.9263 196.225 -50.1164 196.486 -53.8506C196.613 -55.2782 196.857 -56.705 197.335 -58.2401C192.895 -57.6099 187.883 -58.4118 183.93 -60.5253C182.653 -61.4127 181.26 -62.4107 179.985 -63.6277ZM108.959 88.0893C109.773 88.5341 110.47 88.8683 110.936 89.0912C115.817 91.87 129.3 99.3199 129.417 99.3207L164.983 119.111C173.119 123.67 183.389 123.737 191.708 119.286L252.746 87.7103C246.936 84.2661 240.196 80.2665 239.266 79.711L191.262 53.1365C172.193 43.5624 172.931 22.5805 172.946 20.4929L173.818 -18.618L173.831 -20.3759C173.836 -21.0351 173.842 -21.9141 173.85 -22.903C173.876 -26.5288 173.948 -36.3074 170.466 -38.8574L170.35 -38.968C170.002 -39.1901 162.225 -45.0644 153.673 -40.6153L110.552 -17.1634L110.083 -16.9467C106.803 -15.2101 101.998 -12.6044 98.1246 -9.55312C93.1939 -5.62973 92.7596 5.79474 92.9654 9.53192L92.5271 37.3282C92.5053 40.2948 92.327 48.6443 92.2987 52.4899L92.2914 53.4787C91.9122 73.2543 93.7478 77.5515 94.0931 78.2131C94.3232 78.6541 94.9019 79.3171 95.9457 80.203C96.0616 80.3136 96.2942 80.425 96.4101 80.5356C98.3819 82.1967 102.215 84.639 108.959 88.0893ZM10.0365 18.5495C9.97085 27.4492 14.9275 35.8323 23.0634 40.3904L82.811 72.9751C82.3766 68.5771 82.0719 62.422 82.2558 53.3033L82.2623 52.4243C82.2112 43.5238 82.246 38.7993 82.4997 36.054C82.4997 36.054 82.4997 36.054 82.5005 35.9442L82.9274 9.68613C82.8277 7.37802 82.4516 -4.93077 88.2316 -13.2437C83.2175 -13.8259 78.3265 -15.2863 73.9096 -17.7324L19.0481 -48.1975C15.9093 -49.8661 13.2414 -52.0811 10.8076 -54.4045L10.0365 18.5495ZM25.1226 -159.794C16.8043 -155.453 11.6079 -147.136 11.5415 -138.127L10.8659 -78.1378C10.8003 -69.2381 15.7569 -60.8549 24.0096 -56.296L78.8702 -25.7211C82.9386 -23.497 87.4819 -22.3685 92.0325 -22.2289C96.7006 -22.1984 101.377 -23.2666 105.478 -25.4374L147.309 -48.1286C147.895 -48.4544 148.481 -48.7802 149.067 -49.106L159.027 -54.5348C167.346 -58.8756 172.542 -67.1924 172.609 -76.2019L173.284 -136.191C173.35 -145.091 168.393 -153.474 160.141 -158.033L107.267 -189.034C99.131 -193.592 88.8613 -193.659 80.543 -189.319L25.1226 -159.794ZM195.246 -234.059C187.11 -238.617 176.841 -238.684 168.522 -234.343L104.55 -200.369C107.228 -199.583 109.904 -198.466 112.462 -197.131L165.336 -166.24C176.494 -160.013 183.411 -148.431 183.321 -136.235L182.649 -76.6857C182.989 -75.2551 185.64 -70.7328 188.895 -69.0633C191.685 -67.6167 195.884 -67.2596 198.344 -68.4522C199.867 -69.2114 204.79 -72.1459 209.128 -74.8645C210.419 -75.845 211.826 -76.7148 213.35 -77.5839L247.233 -98.569C247.351 -98.6781 247.585 -98.7864 247.701 -98.7857C247.819 -98.8948 263.631 -106.593 263.138 -118.902C263.139 -119.012 263.141 -119.232 263.142 -119.342L267.02 -186.342C266.486 -193.048 262.66 -196.479 261.965 -197.143L195.246 -234.059ZM350.076 -133.388C350.141 -142.287 345.185 -150.67 336.932 -155.229L276.841 -188.695C276.954 -188.145 276.949 -187.596 277.061 -186.936C277.06 -186.716 277.058 -186.496 277.056 -186.277C277.164 -185.067 277.155 -183.859 277.03 -182.651C277.026 -182.211 276.907 -181.882 276.788 -181.554L273.175 -118.837C273.631 -101.583 255.119 -91.705 252.541 -90.4033L218.893 -69.6365C218.425 -69.4198 217.017 -68.4401 215.023 -67.1346C209.038 -62.5588 206.892 -56.5295 206.635 -53.2349C206.122 -47.0851 209.483 -43.8766 213.429 -40.8841L253.295 -18.4283C255.27 -17.2067 262.015 -13.9762 266.452 -14.2769C266.802 -14.2746 267.269 -14.2715 267.619 -14.2692C267.852 -14.2677 273.098 -13.4643 279.19 -16.6109L349.236 -51.0945L350.076 -133.388Z" fill="#047E86"/>
</svg>